# xmcd
#
# Track frame offsets: 
#        150
#        17250
#        40925
#        62037
#        90900
#        121612
#        155200
#        176375
#        197562
#        221337
#        261262
#
# Disc length: 3851 seconds
#
# Revision: 0
# Processed by: cddbd v1.4PL0 Copyright (c) Steve Scherf et al.
# Submitted via: ExactAudioCopy v0.90b2
#
DISCID=840f090b
DTITLE=Eric Clapton - Live in USA 16 Jan 92
DYEAR=1992
DGENRE=Acoustic
TTITLE0=Signe
TTITLE1=Tears in Heaven
TTITLE2=Circus Has Left Town
TTITLE3=My Father's Eyes
TTITLE4=Running On Faith
TTITLE5=Walkin' Blues
TTITLE6=San Francisco Bay Blues
TTITLE7=Malted Milk Blues
TTITLE8=Worried Life Blues
TTITLE9=Old Love
TTITLE10=My Father's Eyes (number 2)
EXTD=
EXTT0=
EXTT1=
EXTT2=
EXTT3=
EXTT4=
EXTT5=
EXTT6=
EXTT7=
EXTT8=
EXTT9=
EXTT10=
PLAYORDER=
